<svg id="Calque_1" data-name="Calque 1" xmlns="http://www.w3.org/2000/svg" viewBox="0 0 8196.24 2772"><defs><style>.cls-1,.cls-3{fill:#e4002b;}.cls-2,.cls-3{fill-rule:evenodd;}</style></defs><title>Logo Wiibus</title><path id="Rectangle_arrondi_1" data-name="Rectangle arrondi 1" class="cls-1" d="M15.2,1998H8181a15.1,15.1,0,0,1,15.2,15h0a15.1,15.1,0,0,1-15.2,15H15.2A15.1,15.1,0,0,1,0,2013H0a15.1,15.1,0,0,1,15.2-15Z"/><path id="WiFi" class="cls-2" d="M1887.05,2407.35l147.5,321.25q6.87,14.39,19.69,20.63t29.68,6.25q38.11,0,51.25-28.75l177.5-385.63a32,32,0,0,0,3.75-14.37q0-13.74-12.81-21.56t-32.81-7.82q-27.51,0-35.63,18.75l-150,343.13L1933.92,2328.6q-8.13-18.12-16.56-24.68t-28.44-6.57q-18.75,0-28.75,6.57t-18.75,24.68l-151.87,330.63L1543.3,2316.1a30.24,30.24,0,0,0-12.81-14.06q-8.45-4.68-22.82-4.69-20,0-32.81,7.82t-12.81,21.56a32,32,0,0,0,3.75,14.37l173.75,385.63q6.87,15,20,21.87t31.25,6.88q36.24,0,48.12-26.88Zm608.12,23.75q0-18.12-10-23.75t-30-5.62q-20,0-29.69,5.62t-9.69,23.75v295q0,18.14,9.69,23.75t29.69,5.63q20,0,30-5.63t10-23.75Zm-77.8-65.62q11.55,9.38,37.81,9.37t37.81-9.37q11.57-9.37,11.56-29.38T2493,2306.73q-11.56-9.37-37.81-9.38t-37.81,9.38q-11.58,9.38-11.57,29.37T2417.37,2365.48Zm381.55-65.63q-185,0-185,116.25v310q0,18.14,10.63,23.75t30.62,5.63q20.63,0,31.25-5.63t10.63-23.75V2563.6h405q15,0,19.69-8.43t4.68-25.32q0-16.87-4.68-25.31t-19.69-8.44h-405v-80q0-20.62,24.69-34.68t79.68-14.07h65.63q15,0,19.37-8.43t4.38-25.32q0-16.87-4.38-25.31t-19.37-8.44Zm506.25,131.25q0-18.12-10-23.75t-30-5.62q-20,0-29.68,5.62t-9.69,23.75v295q0,18.14,9.69,23.75t29.68,5.63q20,0,30-5.63t10-23.75Zm-77.8-65.62q11.57,9.38,37.81,9.37t37.82-9.37q11.55-9.37,11.56-29.38T3303,2306.73q-11.58-9.37-37.82-9.38t-37.81,9.38q-11.57,9.38-11.56,29.37T3227.37,2365.48Z"/><path id="_" data-name=" " class="cls-3" d="M4251.93,2739.33q5,3.14,16.57,6.88t32.18,3.75q21.87,0,32.5-5.63t10.63-19.37a24.32,24.32,0,0,0-4.69-15,43.51,43.51,0,0,0-13.44-11.25l-38.75-21.88a167.19,167.19,0,0,0,5.32-18.12,87.93,87.93,0,0,0,2.18-20V2538.08q0-18.12-9.68-23.75t-29.69-5.62q-20,0-30,5.62t-10,23.75v97.5l-195-111.25,101.25-32.5q35-11.25,51.87-30.31t16.88-52.81v-19.38q0-22.5-8.44-40t-26.87-29.68q-18.45-12.2-48.13-18.75t-71.56-6.57h-105q-73.76,0-109.38,25t-35.62,69.38v32.5a64.92,64.92,0,0,0,10,35.31q10,15.95,32.5,29.69l36.87,22.5-68.75,20q-18.75,5.63-30.62,14.69a72.67,72.67,0,0,0-18.75,20.62,75.55,75.55,0,0,0-9.38,24.69,142.56,142.56,0,0,0-2.5,26.87v23.13q0,108.75,176.88,108.75h233.12a250.24,250.24,0,0,0,45.94-4.38,163.66,163.66,0,0,0,43.44-14.37Zm-338.12-55q-52.5,0-76.25-13.43t-23.75-32.19v-23.13a34.33,34.33,0,0,1,6.56-20q6.57-9.37,20.94-14.37l94.37-30,220.63,131.27a241.82,241.82,0,0,1-31.25,1.87ZM3864.43,2400q0-26.86,20.32-34.69t53.43-7.81h95.63q41.86,0,59.37,8.12t17.5,23.75v18.75q0,15.63-6.25,23.44t-18.75,11.56l-136.87,40.63-54.38-31.23q-16.26-9.37-23.12-16.25a22.19,22.19,0,0,1-6.88-16.25Z"/><path id="VOD" class="cls-2" d="M5130.44,2742a48.94,48.94,0,0,0,19.37-16.25L5421.69,2337a21.53,21.53,0,0,0,5-13.75,22.12,22.12,0,0,0-4.38-13.44,46,46,0,0,0-11.25-10.63,56.45,56.45,0,0,0-31.25-9.68q-19.38,0-27.5,13.12l-250,363.13-252.5-363.13a28.42,28.42,0,0,0-13.44-10,47.83,47.83,0,0,0-16.56-3.12,58.09,58.09,0,0,0-16.56,2.5,59.24,59.24,0,0,0-15.63,7.18,43.86,43.86,0,0,0-11.56,10.63,21.14,21.14,0,0,0-4.37,12.81q0,6.26,5,14.38l275,388.75a49.37,49.37,0,0,0,19.06,16.25q11.55,5.63,29.69,5.62T5130.44,2742Zm735,3.12q185,0,185-116.25V2408.23q0-116.25-185-116.25H5683.56q-185,0-185,116.25v220.62q0,116.25,185,116.25Zm-179.38-67.5q-55,0-80-14.37t-25-34.38V2408.23q0-20.62,25-34.69t80-14.06h176.88q55,0,80,14.06t25,34.69v220.62q0,20-25,34.38t-80,14.37Zm1048.13-269.37q0-116.25-185-116.25H6194.81q-28.76,0-28.75,28.75v395q0,29.39,28.75,29.37h354.38q185,0,185-116.25Zm-485-48.75h297.5q55,0,80.31,14.06t25.31,34.69v220.62q0,20-25.31,34.38t-80.31,14.37h-297.5Z"/><path id="W" class="cls-2" d="M1153.67,786.74l393.41,856.83q18.33,38.34,52.51,55t79.19,16.67q101.67,0,136.69-76.69L2288.9,610q10-20,10-38.34,0-36.66-34.17-57.52t-87.51-20.84q-73.36,0-95,50l-400.08,915.19L1278.7,576.7q-21.67-48.33-44.19-65.84t-75.84-17.52q-50,0-76.67,17.52t-50,65.84L626.91,1458.54,236.83,543.35q-11.69-25-34.19-37.5T141.8,493.34q-53.36,0-87.52,20.84T20.11,571.7q0,18.33,10,38.34L493.55,1638.57q18.31,40,53.32,58.36t83.36,18.33q96.69,0,128.36-71.69Z"/><path id="bus" class="cls-2" d="M6504.61,781.77q-26.67,15-26.67,63.34v580.11q0,51.71-63.34,86.71t-203.38,35H5826.14q-140,0-203.37-35t-63.34-86.71V845.09q0-48.33-25.85-63.34t-79.17-15q-53.34,0-80,15t-26.67,63.34v580.1q0,290.07,471.75,290.07h398.42q471.75,0,471.75-290.07V845.09q0-48.33-25.84-63.34t-79.17-15q-53.35,0-80,15Zm479.75,290q0,115,101.69,180.87t303.4,65.85h373.41q65,0,107.51,5.84t67.52,17.5q25,11.67,35,26.67t10,35v60q0,20-10,35t-35.84,25.93q-25.83,10.83-70,16.67t-110.85,5.8H7049.37q-38.34,0-50,20.84t-11.66,62.5q0,43.37,11.66,64.19t50,20.83h675.14q125,0,215-17.5t146.7-50q56.67-32.52,83.36-80t26.67-107.53v-53.34q0-120-103.36-186.71t-336.68-66.7H7387.78q-100,0-146.7-23.33t-46.67-61.72v-43.34q0-38.35,45-60.85t140-22.5h230q38.35,0,50-20.83t11.79-62.48q0-43.33-11.67-64.17t-50-20.84H7381.11q-196.71,0-296.74,66.69t-100,183.35Z"/><rect id="i_num_1" data-name="i num 1" class="cls-1" x="2563" y="766" width="212" height="949" rx="70"/><rect id="i_num_2" data-name="i num 2" class="cls-1" x="3095" y="766" width="212" height="949" rx="70"/><path class="cls-1" d="M2886,461.17a73.61,73.61,0,1,0,104.1,0h0A73.62,73.62,0,0,0,2886,461.17Z"/><path class="cls-1" d="M2938,286.14a225.47,225.47,0,0,0-160.54,66.51,43.08,43.08,0,1,0,60.19,61.65l.73-.73a140.87,140.87,0,0,1,199.22,0l0,0a43.08,43.08,0,0,0,60.93-60.92h0A225.5,225.5,0,0,0,2938,286.14Z"/><path class="cls-1" d="M2938,144.28a366.46,366.46,0,0,0-260.87,108.06A43.08,43.08,0,1,0,2737.32,314l.73-.73c110.4-110.42,289.41-110.44,399.83,0l0,0a43.08,43.08,0,0,0,60.93-60.92A366.48,366.48,0,0,0,2938,144.28Z"/><path class="cls-1" d="M3299.41,151.82C3202.89,55.27,3074.55,2.1,2938,2.1s-264.87,53.17-361.39,149.72a43.08,43.08,0,1,0,60.19,61.65l.73-.73c80.24-80.28,187-124.48,300.47-124.48s220.2,44.2,300.45,124.48a43.09,43.09,0,0,0,61-60.92Z"/><path d="M5098.13,1366.37q0,107.88-43,176.13t-112.08,106.18q-69.14,37.93-159.28,52.25a1162.77,1162.77,0,0,1-182.87,14.33H3648.63q-77.55,0-77.53-79.22V570.83q0-77.51,77.53-77.53h938.8q109.55,0,200.57,15.17t156.75,54.78a275,275,0,0,1,102,107q36.22,67.44,36.24,173.61,0,89.36-32.87,155.06T4927.9,1108.49q77.51,28.68,123.88,86.8T5098.13,1366.37Zm-229.23,6.74q0-48.87-10.11-82.59t-40.45-55.62q-30.35-21.89-85.11-31.18t-142.42-9.27H3795.27v338.78H4614.4q82.56,0,133.15-9.27t77.53-28.65q27-19.36,35.4-49.72T4868.9,1373.11ZM3800.32,1010.74H4602.6q75.85,0,126.41-6.74t81.75-24.44q31.17-17.7,43.82-50.57t12.64-86.8q0-43.82-10.11-75.84t-37.93-52.25q-27.81-20.24-78.37-29.5T4611,675.33H3800.32Z"/></svg>