<svg id="Calque_1" data-name="Calque 1" xmlns="http://www.w3.org/2000/svg" viewBox="0 0 2500 464"><defs><style>.cls-1{fill:#f1355d;}</style></defs><title>behanceerror</title><path class="cls-1" d="M215.16,0c21.31,0,41,1.66,59,6.56a128.3,128.3,0,0,1,45.91,18Q339.77,36.89,349.6,59c6.56,14.74,9.84,32.79,9.84,52.46,0,22.94-4.92,42.63-16.4,57.39-9.83,14.74-26.23,27.85-45.9,37.69,27.87,8.2,49.18,22.94,62.3,42.63s21.31,44.26,21.31,72.14c0,22.93-4.92,42.62-13.11,59a109.22,109.22,0,0,1-36.07,41,169.06,169.06,0,0,1-52.47,22.95c-19.67,4.9-39.35,8.2-59,8.2H.38V0ZM202,183.63c18,0,32.8-4.92,44.27-13.12s16.4-22.95,16.4-41c0-9.84-1.64-19.67-4.92-26.23s-8.2-11.48-14.76-16.4c-6.56-3.27-13.11-6.55-21.31-8.19s-16.4-1.64-26.23-1.64h-95.1V183.63ZM207,377.09c9.84,0,19.68-1.64,27.88-3.26a58.19,58.19,0,0,0,39.34-27.89c3.28-8.2,6.56-18.05,6.56-29.51,0-23-6.56-39.35-19.67-50.84-13.12-9.84-31.15-14.74-52.47-14.74H100.39V377.09Zm316.43-1.64q19.68,19.68,59,19.67A89.62,89.62,0,0,0,630,382q19.68-14.79,24.59-29.53h80.34c-13.12,39.35-32.79,67.24-59,85.25-26.24,16.4-57.39,26.25-95.1,26.25a192.76,192.76,0,0,1-70.5-13.13,131.07,131.07,0,0,1-52.46-36.05A130,130,0,0,1,425,360.68c-8.2-21.32-11.48-44.25-11.48-70.5,0-24.59,3.28-47.53,11.48-68.86a176.67,176.67,0,0,1,34.43-55.73c14.75-14.75,32.79-27.87,52.46-36.07,21.32-8.2,42.63-13.11,68.86-13.11,27.88,0,52.47,4.91,73.78,16.39s37.71,24.59,50.83,44.27c13.11,18,23,39.33,29.51,62.3,3.28,22.95,4.92,45.91,3.28,72.14H500.44c0,26.23,9.83,50.82,22.95,63.94ZM626.68,203.3c-11.48-11.48-29.51-18-50.83-18-14.75,0-26.23,3.26-36.06,8.19s-16.4,11.46-23,18-9.83,14.75-11.47,22.95-3.28,14.74-3.28,21.31H649.63c-3.28-24.59-11.47-41-23-52.46ZM866.05,0V170.51h1.64c11.48-19.67,26.23-32.79,44.27-41s34.43-13.11,52.46-13.11q36.89,0,59,9.83c14.76,6.56,27.88,16.4,36.07,27.87a111.85,111.85,0,0,1,18,42.63c3.28,16.4,4.92,34.45,4.92,55.75V454.15H992.29V268.88c0-27.87-4.92-47.55-13.11-60.66s-23-19.68-44.27-19.68c-24.59,0-42.63,8.2-52.47,21.33C871,224.61,866.05,249.21,866.05,282V454.15H775.88V0Zm282,173.79c9.83-14.76,21.31-24.59,36.07-34.45a160.64,160.64,0,0,1,49.18-18,301.69,301.69,0,0,1,54.11-4.92c16.39,0,32.79,1.64,50.84,3.28a135.47,135.47,0,0,1,45.89,13.11c14.75,6.55,24.59,16.4,34.44,27.88,8.18,11.49,13.1,27.88,13.1,47.56V380.37c0,14.75,1.64,29.51,3.28,42.64s6.54,24.59,11.48,31.14h-91.81c-3.3-3.28-4.94-9.84-6.56-14.74s-1.64-11.48-1.64-16.4a125.77,125.77,0,0,1-50.83,31.14c-19.67,6.55-39.35,8.19-59,8.19-16.39,0-29.51-1.64-44.27-6.54-13.11-3.28-24.59-9.85-36.07-18.05a94.56,94.56,0,0,1-24.59-31.13,118.61,118.61,0,0,1-8.2-44.29c0-18.05,3.28-34.44,9.84-45.9a107.36,107.36,0,0,1,24.59-29.51c9.84-6.55,23-13.12,36.07-16.4s26.24-6.54,41-8.2l39.35-4.92q19.68-2.46,34.43-4.91c9.84-3.28,18-6.56,24.59-11.48s8.2-11.48,8.2-21.31-1.64-18-4.92-23a49.88,49.88,0,0,0-13.12-13.11c-4.93-3.28-11.47-4.92-18-6.55s-14.76-1.65-23-1.65c-18,0-31.15,3.28-41,11.48s-16.4,21.31-18,37.7h-90.17a97.74,97.74,0,0,1,14.76-50.82Zm178.69,127.88c-4.9,1.64-11.46,3.28-18,4.92s-13.11,1.66-21.31,3.28c-6.54,1.64-14.74,1.64-21.31,3.28l-19.68,4.92c-6.56,1.64-13.11,4.92-16.39,8.19-4.92,3.28-8.2,8.2-11.48,13.12-4.9,6.56-4.9,13.12-4.9,21.31s1.64,14.76,4.92,19.68,6.55,9.85,11.47,13.11,11.48,4.94,18,6.56,13.1,1.64,21.29,1.64c18.06,0,31.16-3.26,41-8.2,9.86-6.54,16.4-13.11,21.33-21.31s8.2-16.39,8.2-24.59a94,94,0,0,0,1.64-19.68V293.47c-4.92,3.28-9.84,6.58-14.77,8.2Zm241-177.07v45.91h1.64c11.46-19.67,26.23-32.79,44.25-41s37.72-13.11,55.74-13.11q36.9,0,59,9.83c16.39,6.56,27.88,16.4,36.08,27.87s14.74,26.24,19.66,42.63c3.28,16.4,4.93,34.45,4.93,55.75V454.15h-90.17V268.88c0-27.87-4.93-47.55-13.13-60.66s-23-21.31-45.91-21.31c-24.59,0-42.64,9.83-54.1,24.59s-16.4,39.35-16.4,72.14V455.79h-90.17V124.6Zm423,59c-14.74,0-26.23,3.28-36,9.85a75.5,75.5,0,0,0-24.59,26.23c-6.56,9.84-9.84,21.32-13.14,34.43s-3.26,24.59-3.26,37.73c0,11.46,1.64,24.59,3.26,36.05,3.3,13.13,6.56,22.95,13.14,32.79s13.11,18.05,23,24.59,21.3,9.86,36,9.86c21.33,0,37.73-6.56,50.83-18.05,11.49-11.46,19.69-27.86,21.33-49.19h86.89c-6.54,44.27-22.93,77.06-50.84,100s-63.92,34.43-108.21,34.43a175.42,175.42,0,0,1-67.22-13.12c-21.33-8.2-37.72-19.67-52.46-34.43S1843.17,382,1835,362.37c-8.2-21.32-11.46-42.65-11.46-67.24,0-26.23,3.26-49.19,11.46-70.5s18-41,32.79-57.38,32.79-27.87,52.48-37.71a192.59,192.59,0,0,1,70.49-13.12c19.69,0,37.72,3.28,55.74,8.2A143.09,143.09,0,0,1,2094,147.56a100.32,100.32,0,0,1,34.43,39.35c8.19,14.75,13.13,34.42,14.75,55.74h-88.53q-4.85-59-63.93-59ZM482.4,31.15H666V75.42H482.4Zm1801.83,344.3c13.14,13.12,34.43,19.67,59,19.67,18,0,34.44-4.91,47.54-13.11q19.69-14.79,24.59-29.53h78.72c-13.14,39.35-32.79,67.24-59,85.25C2408.82,454.13,2377.69,464,2340,464a192.87,192.87,0,0,1-70.52-13.13A131.08,131.08,0,0,1,2217,414.8a130.14,130.14,0,0,1-32.79-54.12c-8.2-21.32-11.47-44.25-11.47-70.5,0-24.59,3.27-47.53,11.47-68.86a176.56,176.56,0,0,1,34.43-55.73c14.76-14.75,32.79-27.87,52.47-36.07A190.46,190.46,0,0,1,2340,116.41c27.85,0,52.44,4.91,72.13,16.39,21.3,11.48,37.7,24.59,50.83,44.27,13.12,18,22.95,39.33,29.51,62.3s8.2,47.53,6.54,73.78H2261.26c0,24.59,9.86,49.18,23,62.3ZM2389.16,203.3c-11.47-11.48-29.53-18-50.82-18-14.76,0-26.25,3.26-36.09,8.19s-18,11.46-22.94,18-9.85,14.75-11.47,22.95-3.27,14.74-3.27,21.31h147.56c-4.93-24.59-13.13-41-23-52.46Z"/></svg>